# AST/ASF file generated using VICON BodyLanguage
# -----------------------------------------------
:version 1.10
:name VICON
:units
  mass 1.0
  length 0.45
  angle deg
:documentation
   .ast/.asf automatically generated from VICON data using
   VICON BodyBuilder and BodyLanguage model FoxedUp or BRILLIANT.MOD
:root
   order TX TY TZ RX RY RZ
   axis XYZ
   position 0 0 0  
   orientation 0 0 0 
:bonedata
  begin
     id 1 
     name lhipjoint
     direction 0.643824 -0.71708 0.266994 
     length 2.52133 
     axis 0 0 0  XYZ
  end
  begin
     id 2 
     name lfemur
     direction 0.34202 -0.939693 0  
     length 7.51824  
     axis 0 0 20  XYZ
    dof rx ry rz
    limits (-160.0 20.0)
           (-70.0 70.0)
           (-60.0 70.0)
  end
  begin
     id 3 
     name ltibia
     direction 0.34202 -0.939693 0   
     length 7.3685   
     axis 0 0 20   XYZ
    dof rx
    limits (-10.0 170.0)
  end
  begin
     id 4 
     name lfoot
     direction 0.105419 -0.289636 0.951314   
     length 2.20972   
     axis -90 7.62852e-016 20   XYZ
    dof rx rz
    limits (-45.0 90.0)
           (-70.0 20.0)
  end
  begin
     id 5 
     name ltoes
     direction 1.53549e-011 -4.21833e-011 1   
     length 1.10139   
     axis -90 7.62852e-016 20   XYZ
    dof rx
    limits (-90.0 20.0)
  end
  begin
     id 6 
     name rhipjoint
     direction -0.608823 -0.743445 0.276811   
     length 2.43192  
     axis 0 0 0  XYZ 
  end
  begin
     id 7 
     name rfemur
     direction -0.34202 -0.939693 0   
     length 7.69715   
     axis 0 0 -20   XYZ
    dof rx ry rz
    limits (-160.0 20.0)
           (-70.0 70.0)
           (-70.0 60.0)
  end
  begin
     id 8 
     name rtibia
     direction -0.34202 -0.939693 0   
     length 7.44924   
     axis 0 0 -20   XYZ
    dof rx
    limits (-10.0 170.0)
 end
 begin
     id 9 
     name rfoot
     direction -0.103614 -0.284677 0.953007   
     length 2.22623  
     axis -90 -7.62852e-016 -20   XYZ
    dof rx rz
    limits (-45.0 90.0)
           (-20.0 70.0)
  end
  begin
     id 10 
     name rtoes
     direction -1.53537e-011 -4.22026e-011 1   
     length 1.11   
     axis -90 -7.62852e-016 -20   XYZ
    dof rx
    limits (-90.0 20.0)
  end
  begin
     id 11 
     name lowerback
     direction -0.0101212 0.99662 -0.0815298   
     length 2.08277   
     axis 0 0 0   XYZ
    dof rx ry rz
    limits (-20.0 45.0)
           (-30.0 30.0)
           (-30.0 30.0)
  end
  begin
     id 12 
     name upperback
     direction 0.024314 0.999591 -0.0150645   
     length 2.08524   
     axis 0 0 0   XYZ
    dof rx ry rz
    limits (-20.0 45.0)
           (-30.0 30.0)
           (-30.0 30.0)
  end
  begin
     id 13 
     name thorax
     direction 0.0285959 0.999323 0.0231357   
     length 2.09645   
     axis 0 0 0   XYZ
    dof rx ry rz
    limits (-20.0 45.0)
           (-30.0 30.0)
           (-30.0 30.0)
  end
  begin
     id 14 
     name lowerneck
     direction -0.065512 0.979301 0.191515   
     length 1.63798   
     axis 0 0 0   XYZ
    dof rx ry rz
    limits (-20.0 45.0)
           (-30.0 30.0)
           (-30.0 30.0)
  end
  begin
     id 15 
     name upperneck
     direction 0.0498479 0.98191 -0.182667   
     length 1.68731   
     axis 0 0 0   XYZ
    dof rx ry rz
    limits (-20.0 45.0)
           (-30.0 30.0)
           (-30.0 30.0)
  end
  begin
     id 16
     name head
     direction 0.0230358 0.996257 -0.0833175  
     length 1.69785  
     axis 0 0 0   XYZ
    dof rx ry rz
    limits (-20.0 45.0)
           (-30.0 30.0)
           (-30.0 30.0)
  end
  begin
     id 17 
     name lclavicle
     direction 0.967963 0.201165 -0.150269  
     length 3.63976  
     axis 0 0 0   XYZ
    dof ry rz
    limits (-20.0 10.0)
           (0.0 20.0)
  end
  begin
     id 18 
     name lhumerus
     direction 1 -4.48954e-011 -2.92837e-028   
     length 5.32462   
     axis 180 -30 -90   XYZ
    dof rx ry rz
    limits (-60.0 90.0)
           (-90.0 90.0)
           (-90.0 90.0)
  end
  begin
     id 19
     name lradius
     direction 1 -4.48958e-011 -6.39511e-027   
     length 3.48402   
     axis 180 -30 -90   XYZ
    dof rx
    limits (-10.0 170.0)
  end
  begin
     id 20
     name lwrist
     direction 1 -4.48975e-011 -1.1413e-026   
     length 1.74201   
     axis 6.88575e-015 90 90   XYZ
    dof ry
    limits (-180.0 0.0)
 end
  begin
     id 21 
     name lhand
     direction 1 -4.48899e-011 -2.28192e-026   
     length 0.572476   
     axis 1.45643e-014 90 90   XYZ
    dof rx rz
    limits (-90.0 90.0)
           (-45.0 45.0)
  end
  begin
     id 22 
     name lfingers
     direction 1 -4.49155e-011 -4.5684e-026   
     length 0.461545   
     axis 2.91283e-014 90 90   XYZ
    dof rx
    limits (0.0 90.0)
  end
  begin
     id 23
     name lthumb
     direction 0.707107 -6.34943e-011 0.707107   
     length 0.662688   
     axis -90 45 -2.25915e-014   XYZ
    dof rx rz
    limits (-45.0 45.0)
           (-45.0 45.0)
  end
  begin
     id 24 
     name rclavicle
     direction -0.964103 0.264019 -0.0282629   
     length 3.54491  
     axis 0 0 0   XYZ 
    dof ry rz
    limits (-10.0 20.0)
           (-20.0 0.0)
  end
  begin
     id 25 
     name rhumerus
     direction -1 -4.48964e-011 -2.45032e-027  
     length 5.33589   
     axis 180 30 90   XYZ
    dof rx ry rz
    limits (-90.0 60.0)
           (-90.0 90.0)
           (-90.0 90.0)
  end
  begin
     id 26 
     name rradius
     direction -1 -4.48987e-011 -1.55093e-027   
     length 3.64134   
     axis 180 30 90   XYZ
    dof rx
    limits (-10.0 170.0)
  end
  begin
     id 27 
     name rwrist
     direction -1 -4.4897e-011 -1.14128e-026   
     length 1.82067   
     axis 6.88575e-015 -90 -90   XYZ
    dof ry
    limits (-180.0 0.0)
  end
  begin
     id 28
     name rhand
     direction -1 -4.49021e-011 -2.28301e-026   
     length 0.734811   
     axis 1.45643e-014 -90 -90   XYZ
    dof rx rz
    limits (-90.0 90.0)
           (-45.0 45.0)
  end
  begin
     id 29
     name rfingers
     direction -1 -4.48862e-011 -4.56319e-026   
     length 0.592424   
     axis 2.91283e-014 -90 -90   XYZ
    dof rx
    limits (0.0 90.0)
  end
  begin
     id 30
     name rthumb
     direction -0.707107 -6.34978e-011 0.707107   
     length 0.850605   
     axis -90 -45 2.25915e-014   XYZ
    dof rx rz
    limits (-45.0 45.0)
           (-45.0 45.0)
  end
:hierarchy
  begin
    root lhipjoint rhipjoint lowerback
    lhipjoint lfemur
    lfemur ltibia
    ltibia lfoot
    lfoot ltoes
    rhipjoint rfemur
    rfemur rtibia
    rtibia rfoot
    rfoot rtoes
    lowerback upperback
    upperback thorax
    thorax lowerneck lclavicle rclavicle
    lowerneck upperneck
    upperneck head
    lclavicle lhumerus
    lhumerus lradius
    lradius lwrist
    lwrist lhand lthumb
    lhand lfingers
    rclavicle rhumerus
    rhumerus rradius
    rradius rwrist
    rwrist rhand rthumb
    rhand rfingers
  end

#!OML:ASF F:\VICON\USERDATA\INSTALL\rory3\rory3.ASF
:FULLY-SPECIFIED
:DEGREES
139
root 0.816656 17.8098 -1.87029 3.84518 -5.171 -3.31376
lowerback 4.57379 -1.61172 -1.54188
upperback -0.631568 -2.35878 -3.67981
thorax -3.31183 -1.18233 -2.75884
lowerneck -15.1779 -16.2079 -14.8975
upperneck 9.6727 -20.4165 10.9151
head 8.05824 -9.55214 3.11726
rclavicle -1.16289e-014 -4.77083e-015
rhumerus 52.5571 -28.6921 -32.6992
rradius 24.0429
rwrist 31.5919
rhand -17.8594 -14.516
rfingers 7.12502
rthumb 8.40604 -44.3287
lclavicle -1.16289e-014 -4.77083e-015
lhumerus -33.401 13.8636 65.8178
lradius 32.0904
lwrist -8.33862
lhand -7.55138 31.1743
lfingers 7.12502
lthumb 18.3405 60.3297
rfemur -16.0266 3.33738 16.9179
rtibia 30.0647
rfoot -15.8241 -7.0143
rtoes 7.39169
lfemur -12.0942 4.3072 -19.876
ltibia 29.7763
lfoot -17.5108 5.98274
ltoes -12.6649
140
root 0.810796 17.8082 -1.86297 3.81107 -5.34985 -3.28921
lowerback 4.64545 -1.61433 -1.66829
upperback -0.707834 -2.37694 -3.71312
thorax -3.42829 -1.18936 -2.71835
lowerneck -14.9631 -16.1529 -15.0794
upperneck 9.56717 -20.337 10.9899
head 8.00608 -9.52545 3.19519
rclavicle 3.45885e-014 -2.22639e-014
rhumerus 52.5171 -28.5902 -32.3917
rradius 23.9423
rwrist 31.705
rhand -17.8961 -14.5847
rfingers 7.12502
rthumb 8.37062 -44.3988
lclavicle 3.45885e-014 -2.22639e-014
lhumerus -33.6447 14.0038 65.6269
lradius 31.9418
lwrist -8.28354
lhand -7.75911 31.6107
lfingers 7.12502
lthumb 18.1406 60.7847
rfemur -16.0227 3.34506 16.9123
rtibia 30.1125
rfoot -15.7404 -6.84242
rtoes 7.52084
lfemur -12.0156 4.44374 -19.8858
ltibia 29.8046
lfoot -17.5687 6.02913
ltoes -12.8287
141
root 0.805234 17.8082 -1.85596 3.81586 -5.5676 -3.3979
lowerback 4.6022 -1.59834 -1.67367
upperback -0.722399 -2.35477 -3.70973
thorax -3.4178 -1.17831 -2.71449
lowerneck -14.8326 -16.1296 -15.1732
upperneck 9.39145 -20.2895 11.0107
head 7.93234 -9.51232 3.23592
rclavicle 1.02374e-014 -4.77083e-015
rhumerus 52.4518 -28.5147 -32.0502
rradius 23.9451
rwrist 31.7663
rhand -17.5879 -14.5166
rfingers 7.12502
rthumb 8.66808 -44.3186
lclavicle 1.02374e-014 -4.77083e-015
lhumerus -33.8033 14.2506 65.4422
lradius 31.8281
lwrist -8.3959
lhand -7.71629 32.0572
lfingers 7.12502
lthumb 18.1818 61.2275
rfemur -16.0503 3.39874 17.0399
rtibia 30.153
rfoot -15.6736 -6.66958
rtoes 8.0597
lfemur -11.9546 4.4332 -19.759
ltibia 29.8352
lfoot -17.6164 6.27562
ltoes -13.0158
142
root 0.797846 17.8107 -1.84946 3.80383 -5.76523 -3.50056
lowerback 4.58216 -1.58448 -1.6875
upperback -0.688759 -2.33601 -3.74284
thorax -3.37191 -1.1691 -2.74342
lowerneck -14.896 -16.1255 -15.1404
upperneck 9.34801 -20.2797 11.0297
head 7.92591 -9.50325 3.23653
rclavicle 3.37934e-015 2.06736e-014
rhumerus 52.3762 -28.5288 -31.7225
rradius 23.9428
rwrist 31.8735
rhand -17.0705 -14.3328
rfingers 7.12502
rthumb 9.1673 -44.1135
lclavicle 3.37934e-015 2.06736e-014
lhumerus -33.9146 14.3514 65.273
lradius 31.8508
lwrist -8.41995
lhand -7.6148 32.2422
lfingers 7.12502
lthumb 18.2794 61.4033
rfemur -16.0676 3.48688 17.1773
rtibia 30.206
rfoot -15.6125 -6.58198
rtoes 8.27318
lfemur -11.8915 4.40557 -19.6252
ltibia 29.8674
lfoot -17.6571 6.46292
ltoes -12.9191
143
root 0.789728 17.8105 -1.8425 3.78227 -5.89647 -3.6024
lowerback 4.56484 -1.59064 -1.69779
upperback -0.639308 -2.34318 -3.7782
thorax -3.3124 -1.17285 -2.77479
lowerneck -15.0115 -16.1411 -15.0089
upperneck 9.34587 -20.2949 10.9423
head 7.92172 -9.50828 3.18284
rclavicle -3.93594e-014 -2.54444e-014
rhumerus 52.496 -28.663 -31.7521
rradius 23.8583
rwrist 32.297
rhand -16.6813 -14.7205
rfingers 7.12502
rthumb 9.54281 -44.4844
lclavicle -3.93594e-014 -2.54444e-014
lhumerus -34.0088 14.4509 65.1027
lradius 31.8571
lwrist -8.41461
lhand -7.47313 32.2955
lfingers 7.12502
lthumb 18.4157 61.4438
rfemur -16.0605 3.43022 17.3453
rtibia 30.2382
rfoot -15.468 -6.61809
rtoes 7.05822
lfemur -11.8438 4.42254 -19.4949
ltibia 29.9216
lfoot -17.6653 6.60764
ltoes -13.2362
144
root 0.781344 17.8079 -1.83546 3.78219 -6.01114 -3.63716
lowerback 4.45565 -1.60954 -1.77701
upperback -0.584282 -2.36643 -3.79824
thorax -3.19253 -1.18326 -2.75289
lowerneck -14.981 -16.1424 -15.0062
upperneck 9.19789 -20.2817 10.9215
head 7.86291 -9.50685 3.18497
rclavicle 5.86415e-015 -2.22639e-014
rhumerus 52.575 -28.6967 -31.6478
rradius 23.7997
rwrist 32.48
rhand -16.3282 -14.8214
rfingers 7.12502
rthumb 9.88354 -44.5694
lclavicle 5.86415e-015 -2.22639e-014
lhumerus -34.0014 14.5922 64.9861
lradius 31.6153
lwrist -8.38857
lhand -7.41426 32.019
lfingers 7.12502
lthumb 18.4724 61.1619
rfemur -16.0819 3.3245 17.4372
rtibia 30.275
rfoot -15.2814 -6.62687
rtoes 6.15141
lfemur -11.8227 4.52775 -19.4452
ltibia 29.9662
lfoot -17.6578 6.72062
ltoes -13.8157
145
root 0.775219 17.8092 -1.82925 3.80084 -6.11602 -3.72127
lowerback 4.37442 -1.62294 -1.77795
upperback -0.561236 -2.3803 -3.81031
thorax -3.12396 -1.1904 -2.76635
lowerneck -14.8662 -16.1408 -15.0321
upperneck 8.99338 -20.2693 10.9194
head 7.77704 -9.50953 3.20355
rclavicle 2.48481e-014 -3.49861e-014
rhumerus 52.3692 -28.5811 -31.1607
rradius 23.8049
rwrist 32.303
rhand -15.9424 -14.4904
rfingers 7.12502
rthumb 10.2557 -44.2204
lclavicle 2.48481e-014 -3.49861e-014
lhumerus -33.9997 14.7812 64.8556
lradius 31.2775
lwrist -8.47779
lhand -7.48366 31.4239
lfingers 7.12502
lthumb 18.4056 60.5731
rfemur -16.1168 3.28543 17.5474
rtibia 30.3112
rfoot -15.1831 -6.51732
rtoes 6.5109
lfemur -11.8209 4.52576 -19.3416
ltibia 30.0241
lfoot -17.7189 6.84624
ltoes -13.8694
